<?xml version="1.0" standalone="no"?>
<!DOCTYPE svg PUBLIC "-//W3C//DTD SVG 20010904//EN"
 "http://www.w3.org/TR/2001/REC-SVG-20010904/DTD/svg10.dtd">
<svg version="1.0" xmlns="http://www.w3.org/2000/svg"
 width="500.000000pt" height="500.000000pt" viewBox="0 0 500.000000 500.000000"
 preserveAspectRatio="xMidYMid meet">

<g transform="translate(0.000000,500.000000) scale(0.100000,-0.100000)"
fill="#000000" stroke="none">
<path d="M2447 4488 c-83 -104 -317 -408 -317 -412 0 -3 32 -8 70 -12 39 -3
70 -9 70 -13 0 -3 -49 -56 -110 -116 -60 -60 -110 -114 -110 -118 0 -5 27 -7
60 -5 33 1 60 0 60 -4 0 -4 -29 -49 -65 -100 l-66 -93 41 -14 c22 -9 40 -18
40 -21 0 -5 -70 -86 -157 -183 -33 -37 -35 -38 -54 -21 -28 25 -24 30 26 43
25 6 45 15 45 19 0 5 -25 36 -55 69 -30 34 -55 64 -55 66 0 3 14 7 30 9 l31 3
-61 82 c-33 45 -60 84 -60 87 0 2 16 10 35 16 l35 12 -61 66 c-34 37 -93 114
-131 172 -39 58 -73 105 -75 105 -2 0 -67 -81 -144 -180 -151 -195 -148 -186
-65 -200 l39 -6 -86 -87 c-48 -48 -87 -91 -87 -95 0 -4 20 -7 45 -7 25 0 45
-3 45 -6 0 -4 -20 -35 -45 -70 -61 -86 -63 -91 -25 -99 17 -4 30 -10 28 -15
-2 -4 -55 -67 -118 -140 -63 -73 -116 -135 -118 -140 -2 -4 23 -11 54 -15 106
-13 105 -5 5 -148 -65 -91 -85 -127 -73 -127 9 0 64 9 122 19 58 11 106 18
108 16 2 -2 -3 -38 -11 -82 -8 -43 -14 -79 -13 -80 1 -1 59 28 130 63 98 51
127 62 122 47 -8 -29 -36 -153 -36 -164 0 -5 45 -9 101 -9 l102 0 -5 70 c-3
39 -2 70 3 70 5 0 27 -7 49 -16 39 -16 40 -16 59 7 l18 23 53 -34 c59 -38 62
-36 81 44 l12 48 36 -6 c20 -3 44 -6 55 -6 15 0 17 -6 14 -40 -2 -22 -2 -40 1
-40 2 0 71 34 153 76 82 41 151 74 153 72 3 -3 -21 -123 -50 -245 -5 -23 -5
-23 126 -23 l132 0 -6 105 c-4 58 -3 105 2 105 4 0 33 -9 63 -19 l55 -19 17
29 c19 33 23 32 103 -22 52 -36 56 -36 69 -1 10 26 17 29 98 41 48 7 89 12 91
9 2 -2 -3 -37 -11 -77 -7 -41 -12 -76 -11 -78 2 -1 55 24 118 57 63 33 119 60
125 60 8 0 5 -25 -7 -77 -29 -121 -35 -113 82 -113 l101 0 -7 76 c-6 63 -4 76
7 72 88 -33 86 -33 106 -8 l19 23 46 -31 c25 -18 50 -32 56 -32 5 0 18 27 27
60 l17 60 36 -5 c123 -18 161 -21 161 -12 0 6 -29 66 -65 133 -36 68 -65 127
-65 132 0 5 20 6 45 2 25 -4 47 -5 49 -3 2 2 -48 76 -111 165 -63 88 -117 166
-119 173 -3 8 7 15 28 19 66 13 66 19 5 89 -32 35 -57 67 -57 71 0 3 14 6 30
6 l31 0 -56 76 c-72 97 -73 99 -34 113 l32 11 -20 23 c-75 84 -129 154 -181
235 l-61 92 -140 -182 c-78 -101 -141 -186 -141 -189 0 -4 25 -10 56 -14 l57
-7 -94 -94 -94 -94 53 0 c28 0 52 -2 52 -5 0 -3 -22 -38 -50 -77 -27 -39 -50
-74 -50 -79 0 -4 14 -12 32 -18 l32 -11 -27 -27 c-14 -15 -28 -25 -30 -22 -27
31 -218 311 -215 314 2 3 30 13 61 22 l56 18 -74 85 -74 85 40 3 c21 2 39 5
39 7 0 3 -26 39 -58 82 -32 43 -68 92 -80 109 l-22 32 45 12 c25 7 45 16 45
19 0 4 -21 27 -46 51 -56 54 -189 230 -236 311 -18 32 -36 59 -40 59 -4 0 -22
-19 -41 -42z"/>
<path d="M1134 2556 c-93 -41 -124 -172 -124 -529 0 -392 41 -519 173 -534
163 -19 217 114 217 537 0 341 -36 488 -126 526 -42 17 -100 17 -140 0z m119
-94 c28 -33 39 -89 50 -260 12 -187 -1 -483 -24 -554 -22 -69 -79 -92 -121
-50 -37 37 -49 113 -55 352 -6 249 6 422 34 479 29 57 82 72 116 33z"/>
<path d="M2715 2551 c-82 -37 -117 -178 -81 -321 22 -83 48 -127 135 -225 101
-113 116 -147 116 -265 0 -76 -4 -102 -18 -123 -24 -36 -58 -49 -96 -36 -39
14 -61 62 -68 149 l-6 70 -45 0 -45 0 6 -68 c16 -171 72 -242 190 -242 54 0
106 26 133 68 33 49 49 160 37 254 -14 101 -47 166 -140 270 -95 107 -117 151
-121 249 -4 87 12 134 53 149 59 22 98 -25 111 -134 l7 -56 43 0 c38 0 44 3
44 22 0 50 -23 147 -43 183 -41 71 -129 94 -212 56z"/>
<path d="M500 2030 l0 -520 45 0 45 0 0 250 0 250 100 0 100 0 0 -250 0 -250
45 0 45 0 0 520 0 520 -45 0 -45 0 0 -225 0 -225 -100 0 -100 0 0 225 0 225
-45 0 -45 0 0 -520z"/>
<path d="M1540 2030 l0 -520 160 0 160 0 0 40 0 40 -115 0 -115 0 0 480 0 480
-45 0 -45 0 0 -520z"/>
<path d="M1950 2030 l0 -520 40 0 40 0 2 438 3 437 75 -435 75 -435 30 0 30 0
75 435 75 435 3 -437 2 -438 45 0 45 0 0 520 0 520 -70 0 -69 0 -6 -32 c-3
-18 -32 -185 -64 -371 -32 -186 -61 -340 -63 -342 -2 -3 -33 163 -69 368 l-64
372 -68 3 -67 3 0 -521z"/>
<path d="M3082 2088 l3 -463 25 -45 c30 -53 93 -90 155 -90 62 0 125 37 155
90 l25 45 3 463 3 462 -46 0 -45 0 0 -450 c0 -495 0 -498 -59 -518 -40 -14
-80 -2 -105 32 -20 27 -21 40 -24 482 l-3 454 -45 0 -45 0 3 -462z"/>
<path d="M3600 2030 l0 -520 40 0 40 0 2 392 3 393 109 -393 110 -392 38 0 38
0 0 520 0 520 -40 0 -40 0 -1 -372 c0 -205 -2 -368 -4 -363 -2 6 -50 173 -106
373 l-102 362 -43 0 -44 0 0 -520z"/>
<path d="M4130 2030 l0 -522 104 4 c132 4 169 25 215 120 44 92 56 175 56 398
0 223 -12 306 -56 398 -46 95 -83 116 -215 120 l-104 4 0 -522z m200 411 c68
-49 104 -287 82 -551 -17 -213 -52 -281 -149 -296 l-43 -7 0 443 0 443 43 -7
c23 -4 53 -15 67 -25z"/>
<path d="M420 1443 c-8 -2 -21 -7 -29 -9 -32 -10 0 -13 47 -4 76 14 85 8 56
-44 -67 -120 -164 -393 -164 -463 0 -30 -3 -33 -29 -33 -17 0 -32 -3 -34 -7
-3 -5 38 -9 92 -10 80 -1 88 0 48 7 -27 5 -51 10 -53 13 -6 6 80 255 119 342
20 44 50 106 67 138 l32 57 53 0 c30 0 56 3 58 8 5 8 -238 13 -263 5z"/>
<path d="M1197 1398 c-34 -35 -73 -113 -117 -236 l-36 -103 -60 -28 c-32 -16
-94 -56 -138 -90 -122 -95 -143 -82 -106 65 33 132 17 157 -52 82 -34 -37 -38
-39 -29 -16 9 23 7 29 -8 38 -26 13 -37 -3 -50 -74 -15 -80 -14 -86 9 -86 11
0 20 5 20 11 0 13 82 140 87 135 2 -2 -3 -32 -12 -67 -8 -35 -15 -79 -15 -96
0 -34 29 -73 54 -73 8 0 62 35 119 79 89 66 163 109 173 99 1 -2 -9 -50 -22
-108 -31 -135 -33 -267 -5 -301 18 -23 20 -23 39 -6 29 27 44 100 41 201 l-3
89 39 12 c22 6 86 35 142 63 l103 52 -7 -45 c-4 -33 -1 -51 11 -70 22 -33 39
-32 69 5 19 22 34 30 58 30 18 0 88 18 155 40 68 22 137 40 155 40 17 0 48 10
67 22 34 21 35 21 28 2 -4 -10 -10 -42 -13 -71 -10 -92 30 -143 89 -113 12 7
55 36 93 65 71 52 113 77 150 89 18 5 20 2 16 -45 -5 -78 11 -79 48 -4 18 36
37 65 42 65 5 0 9 -17 7 -37 -4 -56 15 -48 62 26 23 35 43 61 45 59 2 -2 -2
-28 -10 -58 -21 -78 -19 -143 3 -163 10 -10 23 -17 29 -17 6 0 49 30 95 66 77
62 127 91 187 109 20 6 23 4 18 -9 -9 -23 9 -66 28 -66 8 0 24 9 35 20 20 20
20 20 20 -31 0 -99 34 -113 121 -50 112 82 201 141 212 141 8 0 11 -18 9 -55
-5 -70 3 -102 27 -115 29 -15 56 -1 151 79 47 39 97 75 112 80 l27 10 -6 -63
c-12 -128 32 -140 161 -42 72 56 154 106 170 106 3 0 3 -20 -1 -45 -4 -33 -1
-51 11 -70 22 -33 39 -32 69 5 19 22 34 30 58 30 18 0 88 18 155 40 68 22 128
40 134 40 8 0 9 -15 4 -45 -6 -41 -5 -45 15 -45 11 0 21 5 21 11 0 13 82 140
87 135 2 -2 -3 -32 -12 -67 -8 -35 -15 -79 -15 -96 0 -34 29 -73 54 -73 8 0
62 36 120 79 95 72 130 90 191 104 15 3 12 5 -8 6 -38 1 -107 -36 -201 -108
-122 -95 -143 -82 -106 65 33 132 17 157 -52 82 -34 -37 -38 -39 -29 -16 9 23
7 29 -8 38 -21 11 -36 -1 -42 -33 -3 -14 -31 -27 -114 -53 -138 -43 -203 -59
-210 -52 -3 3 0 26 7 51 19 73 -14 97 -77 56 -31 -19 -37 -22 -90 -42 -16 -6
-68 -40 -114 -74 -100 -76 -118 -86 -138 -79 -13 5 -14 17 -9 60 3 29 13 72
21 96 8 23 12 46 9 51 -10 17 -34 9 -39 -14 -4 -14 -21 -28 -48 -40 -23 -10
-76 -45 -117 -78 -88 -71 -107 -82 -126 -75 -32 12 -8 174 46 320 l21 54 57
-16 c80 -22 215 -22 273 1 43 16 115 77 92 77 -6 0 -13 -7 -16 -15 -12 -30
-89 -58 -176 -63 -97 -5 -221 13 -221 33 0 7 7 30 16 50 12 30 13 39 3 46 -19
11 -29 2 -50 -47 l-20 -43 -67 4 -67 4 58 -8 c32 -5 60 -11 63 -14 3 -3 -6
-52 -21 -109 l-27 -104 -45 -18 c-25 -10 -84 -48 -131 -83 -102 -76 -119 -86
-132 -78 -16 10 -11 71 12 140 23 70 17 95 -19 80 -10 -4 -29 -7 -43 -6 -14 1
-37 -7 -50 -17 -14 -11 -36 -23 -50 -27 -51 -16 -120 -56 -186 -109 -109 -88
-120 -77 -87 81 12 60 14 86 6 94 -15 15 -47 -4 -70 -41 -19 -32 -33 -39 -33
-16 0 28 -22 28 -52 0 l-30 -29 7 25 c13 42 11 55 -12 58 -16 2 -23 -3 -27
-25 -5 -21 -17 -32 -52 -47 -25 -10 -79 -43 -121 -73 -41 -29 -89 -61 -106
-69 -28 -15 -31 -15 -44 2 -18 24 -17 45 8 131 28 101 15 116 -55 63 -49 -37
-58 -38 -45 -3 11 30 -1 49 -25 40 -10 -4 -16 -19 -16 -42 0 -22 -5 -35 -13
-35 -7 0 -70 -18 -141 -40 -157 -49 -171 -50 -160 -12 24 85 -1 119 -63 85
-198 -110 -363 -176 -363 -145 0 34 47 152 71 180 40 45 97 161 110 223 9 43
9 54 -4 66 -14 14 -18 13 -40 -9z m29 -73 c-9 -44 -70 -167 -96 -190 -19 -18
-19 -15 4 46 44 117 65 168 78 189 11 17 14 18 16 4 2 -9 1 -31 -2 -49z m254
-267 c0 -33 -11 -68 -20 -68 -15 0 -21 37 -11 64 13 32 31 34 31 4z m2470 0
c0 -33 -11 -68 -20 -68 -15 0 -21 37 -11 64 13 32 31 34 31 4z m-1090 -1 c0
-20 -50 -88 -60 -82 -18 11 28 95 52 95 4 0 8 -6 8 -13z m-1410 -90 c0 -13
-30 -47 -42 -47 -9 0 -10 35 -2 68 6 22 8 22 25 6 11 -9 19 -22 19 -27z m2470
0 c0 -13 -30 -47 -42 -47 -9 0 -10 35 -2 68 6 22 8 22 25 6 11 -9 19 -22 19
-27z m-2842 -141 c5 -63 -31 -202 -50 -190 -13 8 -6 131 12 212 15 67 31 57
38 -22z"/>
<path d="M3027 1290 c-21 -4 -43 -12 -48 -17 -11 -11 47 -2 116 17 l30 8 -30
0 c-16 0 -47 -4 -68 -8z"/>
<path d="M3553 1154 c-8 -21 13 -42 28 -27 13 13 5 43 -11 43 -6 0 -13 -7 -17
-16z"/>
</g>
</svg>
